<svg width="38" height="38" viewBox="0 0 38 38" fill="none" xmlns="http://www.w3.org/2000/svg">
<circle cx="19" cy="19" r="17" fill="#E06379" stroke="white" stroke-width="4"/>
<path d="M12.5094 17.1532C12.7441 18.4796 13.381 19.7005 14.3339 20.6506C15.2871 21.6041 16.5131 22.2382 17.8435 22.4659L17.8366 24.1534L16.5498 24.1555C15.9184 24.1888 15.4318 24.7274 15.463 25.3587C15.492 25.9465 15.9622 26.415 16.55 26.4419L17.8329 26.4439L17.8348 27.7267C17.8825 28.3569 18.4322 28.8274 19.0626 28.7776C19.6251 28.7331 20.0727 28.2855 20.1172 27.7229L20.1233 26.4401L21.4062 26.4339C22.0387 26.4329 22.5523 25.9193 22.5533 25.2868C22.5543 24.6543 22.0425 24.1424 21.41 24.1435L20.1271 24.1496L20.1299 22.4581C23.7061 21.8138 26.0924 18.3941 25.4599 14.8201C24.8274 11.246 21.4156 8.8709 17.8395 9.51517C14.2633 10.1594 11.8769 13.5791 12.5094 17.1532ZM22.0354 12.9491C23.7089 14.6225 23.7044 17.3403 22.0254 19.0192C20.3464 20.6982 17.6287 20.7027 15.9552 19.0292C14.2818 17.3558 14.2863 14.6381 15.9652 12.9591C17.6455 11.2832 20.3606 11.2788 22.0354 12.9491Z" fill="white"/>
</svg>
