<svg width="38" height="38" viewBox="0 0 38 38" fill="none" xmlns="http://www.w3.org/2000/svg">
<path d="M19 36C28.3888 36 36 28.3888 36 19C36 9.61116 28.3888 2 19 2C9.61116 2 2 9.61116 2 19C2 28.3888 9.61116 36 19 36Z" fill="#0066CB" stroke="white" stroke-width="4"/>
<path d="M12.531 17.1324C12.7669 18.4557 13.4032 19.6745 14.354 20.6242C15.3074 21.5779 16.5328 22.213 17.862 22.4421L17.8611 25.3767L17.7521 25.0655C17.6666 24.8253 17.5285 24.6071 17.348 24.427L16.944 24.0229C16.499 23.5751 15.7752 23.573 15.3271 24.0182C15.3046 24.0406 15.283 24.0639 15.2624 24.0881C14.8843 24.5655 14.9277 25.2512 15.363 25.6766L18.1916 28.5052C18.638 28.9516 19.3619 28.9514 19.8085 28.5047L22.6388 25.6744C23.0549 25.2783 23.1266 24.6409 22.809 24.1626C22.4451 23.6468 21.7318 23.5239 21.2158 23.888C21.158 23.9288 21.1041 23.9749 21.0548 24.0257L20.6505 24.43C20.4638 24.6164 20.3227 24.8433 20.238 25.0931L20.153 25.4124L20.1498 22.4415C23.721 21.8027 26.1 18.3902 25.4635 14.8194C24.8269 11.2486 21.4158 8.87164 17.8446 9.51036C14.2734 10.1491 11.8944 13.5616 12.531 17.1324ZM22.0363 12.9419C23.7101 14.6157 23.7093 17.3303 22.0345 19.0051C20.3597 20.6799 17.6451 20.6807 15.9713 19.0069C14.2975 17.3331 14.2983 14.6185 15.9731 12.9437C17.6492 11.2721 20.3612 11.2713 22.0363 12.9419Z" fill="white"/>
</svg>
